<svg xmlns="http://www.w3.org/2000/svg" width="22.334" height="20.519" viewBox="0 0 22.334 20.519">
  <path id="basket_1_" data-name="basket (1)" d="M22.334,27.55v1.582a1.491,1.491,0,0,1-1.489,1.489H3.8a.372.372,0,0,1,0-.744H20.845a.745.745,0,0,0,.744-.744V27.55a.745.745,0,0,0-.744-.744H1.489a.745.745,0,0,0-.744.744v1.582a.745.745,0,0,0,.744.744c.384,0,.509-.029.647.121.1.112.007-.246,1.714,8.378a1.119,1.119,0,0,0,1.1.9H17.389a1.119,1.119,0,0,0,1.1-.9l1.255-6.34a.372.372,0,0,1,.73.145l-1.255,6.34a1.865,1.865,0,0,1-1.826,1.5H4.945a1.865,1.865,0,0,1-1.826-1.5l-1.564-7.9A1.493,1.493,0,0,1,0,29.132V27.55a1.491,1.491,0,0,1,1.489-1.489H2.606V24.2a1.491,1.491,0,0,1,1.489-1.489H9.306A1.491,1.491,0,0,1,10.795,24.2v.7a.372.372,0,1,1-.744,0v-.7a.745.745,0,0,0-.744-.744H4.095a.745.745,0,0,0-.744.744v1.861H20.845A1.491,1.491,0,0,1,22.334,27.55ZM10.795,32.714v4.467a.372.372,0,0,0,.744,0V32.714a.372.372,0,0,0-.744,0Zm-3.722.7v3.071a.372.372,0,1,0,.744,0V33.412a.372.372,0,1,0-.744,0Zm7.445,0v3.071a.372.372,0,1,0,.744,0V33.412a.372.372,0,1,0-.744,0ZM8.747,21.733a.372.372,0,0,0,.372-.372v-.372a.745.745,0,0,1,.744-.744h8a.745.745,0,0,1,.744.744v3.792a.372.372,0,1,0,.744,0V20.989A1.491,1.491,0,0,0,17.867,19.5h-8a1.491,1.491,0,0,0-1.489,1.489v.372A.372.372,0,0,0,8.747,21.733Z" transform="translate(0 -19.5)" fill="#fcbf14"/>
</svg>
