<svg xmlns="http://www.w3.org/2000/svg" width="15.747" height="15.747" viewBox="0 0 15.747 15.747">
  <path id="ios-paper" d="M6.252,4.586V16.776a.53.53,0,0,1-1.06,0V5.8H4.586A1.21,1.21,0,0,0,3.375,7.009v10.9a1.21,1.21,0,0,0,1.211,1.211H17.952a1.171,1.171,0,0,0,1.17-1.17V4.586a1.21,1.21,0,0,0-1.211-1.211L7.387,3.451A1.085,1.085,0,0,0,6.252,4.586ZM8.751,5.8h3.18a.53.53,0,1,1,0,1.06H8.751a.53.53,0,0,1,0-1.06Zm0,6.057h5.6a.53.53,0,1,1,0,1.06H8.75a.53.53,0,0,1,0-1.06Zm7.419,4.088H8.75a.53.53,0,0,1,0-1.06h7.419a.53.53,0,1,1,0,1.06Zm0-6.057H8.75a.53.53,0,0,1,0-1.06h7.419a.53.53,0,1,1,0,1.06Z" transform="translate(-3.375 -3.375)" fill="#582d22"/>
</svg>
