<svg xmlns="http://www.w3.org/2000/svg" width="17.15" height="21" viewBox="0 0 17.15 21">
  <g id="order" transform="translate(-8 -2)" opacity="0.25">
    <path id="Caminho_500" data-name="Caminho 500" d="M19.2,2H10.1A2.1,2.1,0,0,0,8,4.1V20.9A2.1,2.1,0,0,0,10.1,23h9.1a2.1,2.1,0,0,0,2.1-2.1V12.645l3.458-3.458a1.34,1.34,0,1,0-1.895-1.895L21.3,8.855V4.1A2.1,2.1,0,0,0,19.2,2Zm-1.4.7h1.4a1.4,1.4,0,0,1,1.4,1.4V9.555l-.7.7V4.45A1.051,1.051,0,0,0,18.85,3.4H17.036a1.038,1.038,0,0,0,.064-.35.35.35,0,0,1,.35-.35ZM14.3,18.1h1.4a.348.348,0,0,0,.247-.1L19.2,14.745V20.55a.35.35,0,0,1-.35.35h-8.4a.35.35,0,0,1-.35-.35V4.45a.35.35,0,0,1,.35-.35h8.4a.35.35,0,0,1,.35.35v6.505L14.053,16.1a.349.349,0,0,0-.1.247v1.4A.35.35,0,0,0,14.3,18.1ZM12.9,3.05a1.038,1.038,0,0,0-.064-.35h3.629a1.03,1.03,0,0,0-.065.35.35.35,0,0,1-.35.35h-2.8A.35.35,0,0,1,12.9,3.05ZM20.6,20.9a1.4,1.4,0,0,1-1.4,1.4H10.1a1.4,1.4,0,0,1-1.4-1.4V4.1a1.4,1.4,0,0,1,1.4-1.4h1.75a.35.35,0,0,1,.35.35,1.038,1.038,0,0,0,.064.35H10.45A1.051,1.051,0,0,0,9.4,4.45v16.1a1.051,1.051,0,0,0,1.05,1.05h8.4a1.051,1.051,0,0,0,1.05-1.05V14.045l.7-.7ZM23.358,7.788a.64.64,0,0,1,1.092.453.636.636,0,0,1-.187.453L15.555,17.4H14.65v-.905Z"/>
    <path id="Caminho_501" data-name="Caminho 501" d="M19.85,37.7V37h-3.5a.35.35,0,0,0-.35.35V41.9a.35.35,0,0,0,.35.35h7a.35.35,0,0,0,.35-.35V40.15H23v1.4H16.7V37.7Z" transform="translate(-5.2 -22.75)"/>
    <path id="Caminho_502" data-name="Caminho 502" d="M23,16.6h.7v-.7h-.35v-.7a3.5,3.5,0,0,0-3.15-3.482V11h-.7v.718A3.5,3.5,0,0,0,16.35,15.2v.7H16v.7h7Zm-5.95-1.4a2.8,2.8,0,1,1,5.6,0v.7h-5.6Z" transform="translate(-5.2 -5.85)"/>
    <path id="Caminho_503" data-name="Caminho 503" d="M16,29h6.65v.7H16Z" transform="translate(-5.2 -17.55)"/>
  </g>
</svg>
