<?xml version="1.0" encoding="utf-8"?>
<!-- Generator: Adobe Illustrator 23.0.0, SVG Export Plug-In . SVG Version: 6.00 Build 0)  -->
<svg version="1.1" id="Capa_1" xmlns="http://www.w3.org/2000/svg" xmlns:xlink="http://www.w3.org/1999/xlink" x="0px" y="0px"
	 viewBox="0 0 512 512" style="enable-background:new 0 0 512 512;" xml:space="preserve">
<path d="M411.2,64.7C369.5,23,314,0,254.9,0S140.4,23,98.7,64.7S33.9,162,33.9,221s23,114.5,64.7,156.3
	c38.2,38.2,87.9,60.7,141.3,64.2V512l23.7-16.8c4.2-3,102.7-73.1,150.8-121.2c19.5-19.5,34.8-42.8,45.4-69
	c10.7-26.4,16.1-54.7,16.1-84C476,162,453,106.5,411.2,64.7L411.2,64.7z M254.9,362.9c-78.2,0-141.8-63.6-141.8-141.8
	S176.7,79.2,254.9,79.2S396.7,142.8,396.7,221C396.8,299.2,333.1,362.9,254.9,362.9z"/>
<path d="M254.9,112.3c-61.7,0-111.8,50.2-111.8,111.8c0,61.7,50.2,111.8,111.8,111.8c61.7,0,111.8-50.2,111.8-111.8
	C366.8,162.4,316.6,112.3,254.9,112.3z M321.2,274.3l-15.5,15.5l-50.2-50.2l-50.2,50.2l-15.5-15.5l50.2-50.2l-50.2-50.2l15.5-15.5
	l50.2,50.2l50.2-50.2l15.5,15.5l-50.2,50.2L321.2,274.3z"/>
</svg>
