<svg xmlns="http://www.w3.org/2000/svg" width="78" height="69.792" viewBox="0 0 78 69.792">
  <g id="dust" transform="translate(0 -26.94)" opacity="0.25">
    <g id="Grupo_252" data-name="Grupo 252" transform="translate(13.944 39.785)">
      <g id="Grupo_251" data-name="Grupo 251">
        <path id="Caminho_504" data-name="Caminho 504" d="M121.342,111.257a8.977,8.977,0,0,0-8.967,8.966h4.57a4.4,4.4,0,1,1,4.4,4.4H91.533v4.57h29.809a8.966,8.966,0,1,0,0-17.933Z" transform="translate(-91.533 -111.257)"/>
      </g>
    </g>
    <g id="Grupo_254" data-name="Grupo 254" transform="translate(23.178 68.518)">
      <g id="Grupo_253" data-name="Grupo 253">
        <path id="Caminho_505" data-name="Caminho 505" d="M187.735,299.861H152.144v4.57h35.591a4.4,4.4,0,1,1-4.4,4.4h-4.57a8.966,8.966,0,1,0,8.966-8.967Z" transform="translate(-152.144 -299.861)"/>
      </g>
    </g>
    <g id="Grupo_256" data-name="Grupo 256" transform="translate(0 44.665)">
      <g id="Grupo_255" data-name="Grupo 255">
        <path id="Caminho_506" data-name="Caminho 506" d="M67.631,143.287a10.381,10.381,0,0,0-10.369,10.369h4.57a5.8,5.8,0,1,1,5.8,5.8H0v4.57H67.631a10.369,10.369,0,1,0,0-20.738Z" transform="translate(0 -143.287)"/>
      </g>
    </g>
    <g id="Grupo_258" data-name="Grupo 258" transform="translate(8.297 30.297)">
      <g id="Grupo_257" data-name="Grupo 257">
        <rect id="Retângulo_130" data-name="Retângulo 130" width="4.57" height="4.57"/>
      </g>
    </g>
    <g id="Grupo_260" data-name="Grupo 260" transform="translate(21.034 38.247)">
      <g id="Grupo_259" data-name="Grupo 259">
        <rect id="Retângulo_131" data-name="Retângulo 131" width="4.57" height="4.57"/>
      </g>
    </g>
    <g id="Grupo_262" data-name="Grupo 262" transform="translate(35.537 26.94)">
      <g id="Grupo_261" data-name="Grupo 261">
        <rect id="Retângulo_132" data-name="Retângulo 132" width="4.57" height="4.57"/>
      </g>
    </g>
    <g id="Grupo_264" data-name="Grupo 264" transform="translate(70.311 26.94)">
      <g id="Grupo_263" data-name="Grupo 263">
        <rect id="Retângulo_133" data-name="Retângulo 133" width="4.57" height="4.57"/>
      </g>
    </g>
    <g id="Grupo_266" data-name="Grupo 266" transform="translate(54.96 32.77)">
      <g id="Grupo_265" data-name="Grupo 265">
        <rect id="Retângulo_134" data-name="Retângulo 134" width="4.57" height="4.57"/>
      </g>
    </g>
    <g id="Grupo_268" data-name="Grupo 268" transform="translate(2.71 72.087)">
      <g id="Grupo_267" data-name="Grupo 267">
        <rect id="Retângulo_135" data-name="Retângulo 135" width="4.57" height="4.57"/>
      </g>
    </g>
    <g id="Grupo_270" data-name="Grupo 270" transform="translate(8.873 88.965)">
      <g id="Grupo_269" data-name="Grupo 269">
        <rect id="Retângulo_136" data-name="Retângulo 136" width="4.57" height="4.57"/>
      </g>
    </g>
    <g id="Grupo_272" data-name="Grupo 272" transform="translate(27.28 80.472)">
      <g id="Grupo_271" data-name="Grupo 271">
        <rect id="Retângulo_137" data-name="Retângulo 137" width="4.57" height="4.57"/>
      </g>
    </g>
    <g id="Grupo_274" data-name="Grupo 274" transform="translate(70.311 81.913)">
      <g id="Grupo_273" data-name="Grupo 273">
        <rect id="Retângulo_138" data-name="Retângulo 138" width="4.57" height="4.57"/>
      </g>
    </g>
    <g id="Grupo_276" data-name="Grupo 276" transform="translate(39 88.965)">
      <g id="Grupo_275" data-name="Grupo 275">
        <rect id="Retângulo_139" data-name="Retângulo 139" width="4.57" height="4.57"/>
      </g>
    </g>
    <g id="Grupo_278" data-name="Grupo 278" transform="translate(57.904 92.161)">
      <g id="Grupo_277" data-name="Grupo 277">
        <rect id="Retângulo_140" data-name="Retângulo 140" width="4.57" height="4.57"/>
      </g>
    </g>
  </g>
</svg>
