<svg id="gear" xmlns="http://www.w3.org/2000/svg" width="23.282" height="23.282" viewBox="0 0 23.282 23.282">
  <g id="Grupo_2" data-name="Grupo 2">
    <g id="Grupo_1" data-name="Grupo 1">
      <path id="Caminho_1" data-name="Caminho 1" d="M22.907,9.388H21.142A9.666,9.666,0,0,0,19.95,6.517L21.2,5.268a.376.376,0,0,0,0-.531L18.545,2.082a.376.376,0,0,0-.531,0L16.765,3.33a9.656,9.656,0,0,0-2.871-1.19V.376A.376.376,0,0,0,13.519,0H9.763a.376.376,0,0,0-.376.376V2.14A9.655,9.655,0,0,0,6.517,3.332L5.268,2.082a.376.376,0,0,0-.531,0L2.082,4.737a.376.376,0,0,0,0,.531L3.33,6.517A9.666,9.666,0,0,0,2.14,9.388H.376A.376.376,0,0,0,0,9.763v3.755a.376.376,0,0,0,.376.376H2.14a9.666,9.666,0,0,0,1.192,2.871l-1.25,1.249a.376.376,0,0,0,0,.531L4.737,21.2a.386.386,0,0,0,.531,0l1.249-1.249a9.666,9.666,0,0,0,2.871,1.19v1.765a.376.376,0,0,0,.376.376h3.755a.376.376,0,0,0,.376-.376V21.142a9.666,9.666,0,0,0,2.871-1.192L18.014,21.2a.376.376,0,0,0,.531,0L21.2,18.543a.376.376,0,0,0,0-.531l-1.249-1.249a9.665,9.665,0,0,0,1.19-2.87h1.765a.376.376,0,0,0,.376-.376V9.763A.376.376,0,0,0,22.907,9.388Zm-.376,3.755h-1.69a.376.376,0,0,0-.368.3,8.922,8.922,0,0,1-1.314,3.166.375.375,0,0,0,.047.473l1.2,1.2L18.279,20.4l-1.2-1.2a.375.375,0,0,0-.473-.047,8.922,8.922,0,0,1-3.166,1.314.376.376,0,0,0-.3.368v1.69h-3v-1.69a.376.376,0,0,0-.3-.368,8.922,8.922,0,0,1-3.166-1.314.375.375,0,0,0-.473.047L5,20.4,2.878,18.279l1.2-1.2a.375.375,0,0,0,.047-.473,8.922,8.922,0,0,1-1.314-3.166.376.376,0,0,0-.368-.3H.751v-3h1.69a.376.376,0,0,0,.368-.3A8.922,8.922,0,0,1,4.123,6.673.376.376,0,0,0,4.076,6.2L2.878,5,5,2.878l1.2,1.2a.375.375,0,0,0,.473.047A8.924,8.924,0,0,1,9.838,2.808a.376.376,0,0,0,.3-.368V.751h3v1.69a.376.376,0,0,0,.3.368,8.924,8.924,0,0,1,3.165,1.314.375.375,0,0,0,.473-.047l1.2-1.2L20.4,5l-1.2,1.2a.375.375,0,0,0-.047.473,8.922,8.922,0,0,1,1.314,3.166.376.376,0,0,0,.368.3h1.69Z" fill="#582d22"/>
    </g>
  </g>
  <g id="Grupo_4" data-name="Grupo 4" transform="translate(7.51 7.51)">
    <g id="Grupo_3" data-name="Grupo 3">
      <path id="Caminho_2" data-name="Caminho 2" d="M164.131,160a4.131,4.131,0,1,0,4.131,4.131A4.131,4.131,0,0,0,164.131,160Zm0,7.51a3.38,3.38,0,1,1,3.38-3.38A3.38,3.38,0,0,1,164.131,167.51Z" transform="translate(-160 -160)" fill="#582d22"/>
    </g>
  </g>
</svg>
