<svg xmlns="http://www.w3.org/2000/svg" width="92.217" height="106.813" viewBox="0 0 92.217 106.813">
  <g id="information" transform="translate(-34.997)" opacity="0.08">
    <path id="Caminho_498" data-name="Caminho 498" d="M113.709,13.5A46.108,46.108,0,1,0,48.5,78.712a45.77,45.77,0,0,0,29.476,13.4v14.7l4.939-3.506c.87-.618,21.422-15.241,31.461-25.281a43,43,0,0,0,9.481-14.4,46.544,46.544,0,0,0,3.356-17.514,45.806,45.806,0,0,0-13.5-32.6ZM81.106,75.7a29.589,29.589,0,1,1,29.589-29.589A29.623,29.623,0,0,1,81.106,75.7Z"/>
    <path id="Caminho_499" data-name="Caminho 499" d="M167.547,109.217A23.333,23.333,0,1,0,190.88,132.55,23.36,23.36,0,0,0,167.547,109.217Zm3.152,36.67h-6.3V127.906h6.3Zm-3.152-19.971c-2.322,0-3.848-1.46-3.848-3.351s1.526-3.351,3.848-3.351,3.848,1.36,3.848,3.251C171.4,124.455,169.869,125.915,167.547,125.915Z" transform="translate(-86.442 -86.442)"/>
  </g>
</svg>
