<svg xmlns="http://www.w3.org/2000/svg" width="17.989" height="16.2" viewBox="0 0 17.989 16.2">
  <path id="storefront-outline" d="M4.755,3a1.824,1.824,0,0,0-1.1.378,1.6,1.6,0,0,0-.63.972L2.1,8.319a2.87,2.87,0,0,0,.549,2.574l.252.252V17.4a1.717,1.717,0,0,0,.549,1.251A1.822,1.822,0,0,0,4.7,19.2H17.3a1.717,1.717,0,0,0,1.251-.549A1.822,1.822,0,0,0,19.1,17.4V11.145l.252-.252A2.87,2.87,0,0,0,19.9,8.319L18.975,4.35a1.816,1.816,0,0,0-.657-.972A1.693,1.693,0,0,0,17.247,3H4.755M17.2,4.773l.972,3.969A1.211,1.211,0,0,1,17.922,9.8a1.027,1.027,0,0,1-.846.4.928.928,0,0,1-.72-.306,1.19,1.19,0,0,1-.333-.738L15.474,4.8,17.2,4.773M4.755,4.8H6.528L5.979,9.156C5.871,9.867,5.52,10.2,4.926,10.2a.961.961,0,0,1-.846-.4,1.211,1.211,0,0,1-.252-1.053L4.755,4.8m3.591,0H10.1V9.03a1.162,1.162,0,0,1-.324.828,1.113,1.113,0,0,1-.846.342.933.933,0,0,1-.774-.369,1.3,1.3,0,0,1-.306-.837V8.85L8.346,4.8m3.555,0h1.755l.495,4.05a1.014,1.014,0,0,1-.261.963,1.136,1.136,0,0,1-.909.387,1.017,1.017,0,0,1-.756-.342A1.162,1.162,0,0,1,11.9,9.03V4.8m-5,6.345A2.905,2.905,0,0,0,9.021,12,2.735,2.735,0,0,0,11,11.145a3.035,3.035,0,0,0,2.07.855,2.8,2.8,0,0,0,2.025-.855A2.608,2.608,0,0,0,17.121,12h.207v5.4H4.7V12h.225A2.552,2.552,0,0,0,6.906,11.145Z" transform="translate(-2.006 -3)" fill="#582d22"/>
</svg>
