<svg id="add_moda" data-name="add moda" xmlns="http://www.w3.org/2000/svg" width="10.766" height="10.766" viewBox="0 0 10.766 10.766">
  <g id="Grupo_352" data-name="Grupo 352" transform="translate(0 1.922)">
    <g id="Grupo_351" data-name="Grupo 351">
      <path id="Caminho_520" data-name="Caminho 520" d="M7.69,85.333H1.153A1.153,1.153,0,0,0,0,86.486v6.536a1.153,1.153,0,0,0,1.153,1.153H7.69a1.153,1.153,0,0,0,1.153-1.153V86.486A1.153,1.153,0,0,0,7.69,85.333Zm.384,7.69a.384.384,0,0,1-.384.384H1.153a.384.384,0,0,1-.384-.384V86.486a.384.384,0,0,1,.384-.385H7.69a.384.384,0,0,1,.384.385Z" transform="translate(0 -85.333)" fill="#582d22"/>
    </g>
  </g>
  <g id="Grupo_354" data-name="Grupo 354" transform="translate(1.538)">
    <g id="Grupo_353" data-name="Grupo 353">
      <path id="Caminho_521" data-name="Caminho 521" d="M76.341,0H69.42a1.153,1.153,0,0,0-1.153,1.153.384.384,0,1,0,.769,0A.384.384,0,0,1,69.42.769h6.921a.384.384,0,0,1,.384.384V8.074a.384.384,0,0,1-.384.384.384.384,0,0,0,0,.769,1.153,1.153,0,0,0,1.153-1.153V1.153A1.153,1.153,0,0,0,76.341,0Z" transform="translate(-68.267)" fill="#582d22"/>
    </g>
  </g>
</svg>
